<svg id="Camada_1" data-name="Camada 1" xmlns="http://www.w3.org/2000/svg" viewBox="0 0 165 51"><defs><style>.cls-1{fill:#fff;}.cls-2{fill:#3f6847;}</style></defs><path class="cls-1" d="M25.79,48.32H139.21A23,23,0,0,0,162.36,25.5,23,23,0,0,0,139.21,2.68H25.79A23,23,0,0,0,2.64,25.5,23,23,0,0,0,25.79,48.32Z"/><path class="cls-2" d="M139.21,51H25.79A25.68,25.68,0,0,1,0,25.5,25.68,25.68,0,0,1,25.79,0H139.21A25.68,25.68,0,0,1,165,25.5,25.68,25.68,0,0,1,139.21,51ZM25.79,2.68A23,23,0,0,0,2.64,25.5,23,23,0,0,0,25.79,48.32H139.21A23,23,0,0,0,162.36,25.5,23,23,0,0,0,139.21,2.68Z"/><polygon class="cls-2" points="102.9 27.86 102.34 32.42 97.6 32.42 99.54 18.53 101.87 18.53 102.36 14.99 92.6 14.99 92.11 18.53 93.77 18.53 91.83 32.42 89.26 32.42 88.77 35.97 106.17 35.97 107.22 27.86 102.9 27.86"/><polygon class="cls-2" points="88.1 18.53 90.59 18.53 91.09 14.99 81.32 14.99 80.82 18.53 82.93 18.53 80.97 32.42 77.96 32.42 77.46 35.97 88.14 35.97 88.64 32.42 86.14 32.42 88.1 18.53"/><path class="cls-2" d="M77.25,21.37,78.48,15H74.74l-.34,1.73a3.88,3.88,0,0,0-3.71-1.94,7.5,7.5,0,0,0-4.42,1.5,6.5,6.5,0,0,0-2.64,4.26,4.17,4.17,0,0,0,.67,3.62,15.61,15.61,0,0,0,4.62,3.11,7.51,7.51,0,0,1,2.21,1.49,1.83,1.83,0,0,1,.38,1.62,2.65,2.65,0,0,1-1,1.58,2.85,2.85,0,0,1-1.85.67,2.77,2.77,0,0,1-2.15-.93A3.34,3.34,0,0,1,66,28.81H62.22L60.83,36H64.6l.34-1.79a4.34,4.34,0,0,0,4.1,2,8.17,8.17,0,0,0,4.83-1.57A7.1,7.1,0,0,0,76.68,30a5.66,5.66,0,0,0-.16-3.09,4.65,4.65,0,0,0-1.67-2.17,21.8,21.8,0,0,0-3.4-1.88,8.32,8.32,0,0,1-2.76-1.65A1.56,1.56,0,0,1,68.4,20a1.84,1.84,0,0,1,.88-1.23,3,3,0,0,1,1.65-.47,2.53,2.53,0,0,1,1.94.81,2.92,2.92,0,0,1,.64,2.29Z"/><path class="cls-2" d="M141.91,15l-.38,3.54h2.15l-1,9.21a15.11,15.11,0,0,1-.54,3.14A2.79,2.79,0,0,1,141,32.17a3.52,3.52,0,0,1-1.93.51,2.63,2.63,0,0,1-1.76-.55,2,2,0,0,1-.74-1.38,15.34,15.34,0,0,1,.13-2.73l1-9.49h2.19l.38-3.54H129.73l-.38,3.54H132L131,28a18.66,18.66,0,0,0-.15,3.65,4.78,4.78,0,0,0,.85,2.15,4.83,4.83,0,0,0,2.39,1.74,11.13,11.13,0,0,0,4.11.66,11.69,11.69,0,0,0,3.82-.59,7,7,0,0,0,2.66-1.56A5.43,5.43,0,0,0,146,32.14a15.44,15.44,0,0,0,.57-3.11l1.12-10.5h2.71l.38-3.54Z"/><path class="cls-2" d="M125.19,15H114.9l-.68,3.54h2.94l-7,13.89h-2.74L106.73,36h9.82l.68-3.55h-3l1.88-3.61h5.75l.36,3.61h-2.84L118.73,36h10.9l.69-3.55h-2.65Zm-7.45,10.75L121,19.42l.63,6.32Z"/><path class="cls-2" d="M52,18c-5.36-6-14.17-7.93-25.74-4-14,4.75-14.26,9.92-8.7,14.12H36.13C29.08,23.79,36.21,10.91,52,18Z"/><path class="cls-2" d="M54.21,22.86H35.6c7.06,4.35-.08,17.23-15.83,10.1,5.36,6,14.18,7.93,25.74,4C59.56,32.23,59.77,27.06,54.21,22.86Z"/></svg>